# xmcd
#
# Track frame offsets: 
#        150
#        24020
#        42772
#        66170
#        78592
#        104335
#        118372
#        125960
#        147952
#        164800
#        180337
#        204487
#        223252
#        249300
#
# Disc length: 3562 seconds
#
# Revision: 0
# Processed by: cddbd v1.4PL0 Copyright (c) Steve Scherf et al.
# Submitted via: ExactAudioCopy v0.90b4
#
DISCID=d00de80e
DTITLE=Les Marvellous Pig Noise - Louise et Anne
DYEAR=2003
DGENRE=Blues
TTITLE0=Louise et Anne
TTITLE1=Toujours du bon côté
TTITLE2=Great Change 1
TTITLE3=Great Change 2
TTITLE4=La Mama
TTITLE5=Un quart de seconde 1
TTITLE6=Un quart de seconde 2
TTITLE7=Mon petit doigt m'a dit
TTITLE8=Pleur' pas Julie
TTITLE9=J'avoue qu'ça m'donne du mal
TTITLE10=Va savoir
TTITLE11=Les blues est quelqu'un qui m'adore
TTITLE12=Mother Earth
TTITLE13=Nobody knows
EXTD=
EXTT0=
EXTT1=
EXTT2=
EXTT3=
EXTT4=
EXTT5=
EXTT6=
EXTT7=
EXTT8=
EXTT9=
EXTT10=
EXTT11=
EXTT12=
EXTT13=
PLAYORDER=
